<svg xmlns="http://www.w3.org/2000/svg" aria-hidden="true" style="position:absolute;width:0;height:0;overflow:hidden">
  <defs>
<symbol id="google"  viewBox="0 0 24 24" >
<path d="M22.56 12.25c0-.78-.07-1.53-.2-2.25H12v4.26h5.92c-.26 1.37-1.04 2.53-2.21 3.31v2.77h3.57c2.08-1.92 3.28-4.74 3.28-8.09z" fill="#4285F4"/>
<path d="M12 23c2.97 0 5.46-.98 7.28-2.66l-3.57-2.77c-.98.66-2.23 1.06-3.71 1.06-2.86 0-5.29-1.93-6.16-4.53H2.18v2.84C3.99 20.53 7.7 23 12 23z" fill="#34A853"/>
<path d="M5.84 14.09c-.22-.66-.35-1.36-.35-2.09s.13-1.43.35-2.09V7.07H2.18C1.43 8.55 1 10.22 1 12s.43 3.45 1.18 4.93l2.85-2.22.81-.62z" fill="#FBBC05"/>
<path d="M12 5.38c1.62 0 3.06.56 4.21 1.64l3.15-3.15C17.45 2.09 14.97 1 12 1 7.7 1 3.99 3.47 2.18 7.07l3.66 2.84c.87-2.6 3.3-4.53 6.16-4.53z" fill="#EA4335"/>
<path d="M1 1h22v22H1z" fill="none"/></symbol>

<symbol id="ua" viewBox="0 0 32 32">
<path d="M31,8c0-2.209-1.791-4-4-4H5c-2.209,0-4,1.791-4,4v9H31V8Z" fill="#2455b2"></path><path d="M5,28H27c2.209,0,4-1.791,4-4v-8H1v8c0,2.209,1.791,4,4,4Z" fill="#f9da49"></path><path d="M5,28H27c2.209,0,4-1.791,4-4V8c0-2.209-1.791-4-4-4H5c-2.209,0-4,1.791-4,4V24c0,2.209,1.791,4,4,4ZM2,8c0-1.654,1.346-3,3-3H27c1.654,0,3,1.346,3,3V24c0,1.654-1.346,3-3,3H5c-1.654,0-3-1.346-3-3V8Z" opacity=".15"></path><path d="M27,5H5c-1.657,0-3,1.343-3,3v1c0-1.657,1.343-3,3-3H27c1.657,0,3,1.343,3,3v-1c0-1.657-1.343-3-3-3Z" fill="#fff" opacity=".2"></path>
</symbol>

<symbol id="en" viewBox="0 0 32 32">
<rect x="1" y="4" width="30" height="24" rx="4" ry="4" fill="#071b65"></rect>
<path d="M5.101,4h-.101c-1.981,0-3.615,1.444-3.933,3.334L26.899,28h.101c1.981,0,3.615-1.444,3.933-3.334L5.101,4Z" fill="#fff"></path><path d="M22.25,19h-2.5l9.934,7.947c.387-.353,.704-.777,.929-1.257l-8.363-6.691Z" fill="#b92932"></path><path d="M1.387,6.309l8.363,6.691h2.5L2.316,5.053c-.387,.353-.704,.777-.929,1.257Z" fill="#b92932"></path><path d="M5,28h.101L30.933,7.334c-.318-1.891-1.952-3.334-3.933-3.334h-.101L1.067,24.666c.318,1.891,1.952,3.334,3.933,3.334Z" fill="#fff"></path><rect x="13" y="4" width="6" height="24" fill="#fff"></rect><rect x="1" y="13" width="30" height="6" fill="#fff"></rect><rect x="14" y="4" width="4" height="24" fill="#b92932"></rect><rect x="14" y="1" width="4" height="30" transform="translate(32) rotate(90)" fill="#b92932"></rect><path d="M28.222,4.21l-9.222,7.376v1.414h.75l9.943-7.94c-.419-.384-.918-.671-1.471-.85Z" fill="#b92932"></path><path d="M2.328,26.957c.414,.374,.904,.656,1.447,.832l9.225-7.38v-1.408h-.75L2.328,26.957Z" fill="#b92932"></path><path d="M27,4H5c-2.209,0-4,1.791-4,4V24c0,2.209,1.791,4,4,4H27c2.209,0,4-1.791,4-4V8c0-2.209-1.791-4-4-4Zm3,20c0,1.654-1.346,3-3,3H5c-1.654,0-3-1.346-3-3V8c0-1.654,1.346-3,3-3H27c1.654,0,3,1.346,3,3V24Z" opacity=".15"></path><path d="M27,5H5c-1.657,0-3,1.343-3,3v1c0-1.657,1.343-3,3-3H27c1.657,0,3,1.343,3,3v-1c0-1.657-1.343-3-3-3Z" fill="#fff" opacity=".2"></path></symbol>
  </defs>
</svg>

